<svg width="130" height="46" viewBox="0 0 130 46" fill="none" xmlns="http://www.w3.org/2000/svg">
<path fill-rule="evenodd" clip-rule="evenodd" d="M107.238 2.66017V25.0116C107.238 25.201 107.295 25.2582 107.484 25.2582H114.551C114.926 25.2582 114.8 24.6751 114.798 24.2723L114.798 15.0685C115.103 15.2731 121.171 22.6102 121.346 22.8184L123.212 25.0611C123.35 25.2068 123.419 25.2582 123.673 25.2582H129.589V2.41363H122.193V12.6033C121.889 12.4929 120.822 11.0875 120.569 10.7765L114.577 3.62088C114.449 3.46893 114.459 3.44991 114.324 3.29838C114.01 2.94598 113.648 2.41363 113.401 2.41363H107.484C107.295 2.41363 107.238 2.47086 107.238 2.66017Z" fill="#001E57"/>
<path fill-rule="evenodd" clip-rule="evenodd" d="M10.354 19.1772H7.72445V8.49458C9.53162 8.49458 11.8219 8.29974 13.3146 8.90311C15.124 9.63464 16.2706 11.3006 16.2706 13.5073C16.2706 14.6833 16.278 15.3841 15.7513 16.4393C15.3986 17.146 15.1658 17.4732 14.5641 17.9639C13.3509 18.9533 12.0127 19.1772 10.354 19.1772ZM0 2.66017V25.0116C0 25.201 0.0572181 25.2582 0.24653 25.2582H10.1896C12.241 25.2582 14.1886 25.1002 15.8066 24.6299C20.5581 23.249 24.0772 19.7551 24.0772 14.0825C24.0772 9.87749 22.7204 7.26129 20.1588 5.18154C19.4835 4.63329 18.14 3.84888 17.3056 3.51516C16.9083 3.35642 16.5514 3.25917 16.1381 3.12129C14.5721 2.59876 12.7266 2.41363 10.6827 2.41363H0.24653C0.0572181 2.41363 0 2.47086 0 2.66017Z" fill="#001E57"/>
<path fill-rule="evenodd" clip-rule="evenodd" d="M91.9532 19.4238C90.0255 19.4238 89.281 19.0033 88.0693 17.802C86.3579 16.1054 86.2815 12.6522 87.5919 10.4607C87.9986 9.78073 88.9004 8.92155 89.6846 8.60901C92.0478 7.66731 94.1221 8.40763 95.4247 9.87145C96.0067 10.5256 96.4853 11.5063 96.6634 12.5771C97.2361 16.0202 95.3086 19.4238 91.9532 19.4238ZM78.8875 13.4251C78.8875 16.6245 79.4546 18.5884 81.2235 20.95C81.8264 21.7549 82.1062 21.9368 82.6885 22.5255C83.3098 23.1535 84.4925 23.912 85.3235 24.3279C88.6814 26.0084 93.4531 26.2403 96.9542 24.8356C97.7374 24.5214 98.2623 24.2282 98.9923 23.8333C100.142 23.2117 101.433 22.0239 102.249 20.9267C103.492 19.2539 104.193 17.6028 104.459 15.4947C104.843 12.4515 104.251 9.59217 102.505 7.06401C100.306 3.8808 96.1281 1.92059 92.2819 1.92059C90.0269 1.92059 88.1541 2.07748 86.1729 2.9608C84.4891 3.71151 83.9322 4.05555 82.5274 5.2318C82.0208 5.65599 81.5557 6.26983 81.1308 6.79362C79.8176 8.41249 78.8875 11.0706 78.8875 13.4251Z" fill="#001E57"/>
<path fill-rule="evenodd" clip-rule="evenodd" d="M55.7965 25.176C56.483 25.3359 62.7522 25.3359 63.4387 25.176C63.4387 23.6695 63.4397 22.1629 63.4387 20.6564C63.4377 19.2051 63.3228 19.7841 63.9897 18.9887L65.0822 17.7803C65.4194 18.0061 69.8191 24.0532 70.5215 24.9137C70.6799 25.1078 70.7413 25.2582 71.0809 25.2582H79.3805C79.9965 25.2582 79.0372 24.3539 78.6079 23.7299L74.9906 18.8833C74.1505 17.8108 73.419 16.7804 72.596 15.69L70.177 12.439L77.5127 4.40806C77.7495 4.16229 77.8275 4.00128 78.0859 3.74864C78.3433 3.49709 79.1088 2.7168 79.134 2.41365L71.738 2.4134C70.3977 2.40637 71.0063 2.3768 69.87 3.50371C68.6036 4.75962 66.8136 6.98814 65.5951 8.18575L64.1999 9.74893C64.0622 9.88555 63.9542 9.97601 63.83 10.1185C63.6706 10.3015 63.6333 10.4186 63.4387 10.549L63.4402 3.23399C63.4453 2.85402 63.5502 2.41365 63.1922 2.41365H56.043C55.6474 2.41365 55.7958 3.18817 55.7964 3.56411L55.7965 25.176Z" fill="#001E57"/>
<path fill-rule="evenodd" clip-rule="evenodd" d="M87.105 41.0357C85.7901 41.0357 85.0431 40.5818 84.371 39.9074C82.2231 37.7522 83.0356 32.2631 87.2158 32.4694C92.2489 32.7179 92.0063 41.0357 87.105 41.0357ZM77.244 36.3517C77.244 39.5347 78.0319 41.2798 80.0983 43.3583C81.739 45.0086 84.6013 45.884 87.105 45.884C92.5068 45.884 96.8837 42.1299 96.8837 36.7626C96.8837 29.3261 88.9982 26.0804 83.1127 28.333C79.7694 29.6126 77.244 32.7004 77.244 36.3517Z" fill="#F9C92C"/>
<path fill-rule="evenodd" clip-rule="evenodd" d="M60.7269 33.6399C60.7269 34.2911 60.9387 35.0952 61.1236 35.5442C61.7917 37.1658 63.5736 38.0132 65.2368 38.498C66.4681 38.8568 67.9453 39.1129 68.999 39.4198C71.2554 40.077 70.284 41.2822 68.8622 41.2822C66.0785 41.2822 64.7688 40.9899 62.3704 39.7209L60.9388 42.9731C60.784 43.3457 60.5715 43.6855 60.4804 44.0762C62.7279 45.2653 65.1848 45.884 67.8761 45.884C70.1994 45.884 72.7535 45.2816 74.098 44.135C74.6357 43.6764 74.979 43.3853 75.3807 42.7059C77.0832 39.8271 76.1136 36.6023 72.6528 35.3551C71.6756 35.0029 70.5464 34.7734 69.4306 34.5507C68.9079 34.4464 67.117 34.1347 66.7606 33.6872C65.5948 32.2226 69.4205 31.2491 73.6283 33.4756C74.091 32.6014 74.9773 30.0699 75.4361 29.2026C71.9406 27.353 66.3993 26.9471 63.2734 29.0372C61.6943 30.093 60.7269 31.6502 60.7269 33.6399Z" fill="#F9C92C"/>
<path fill-rule="evenodd" clip-rule="evenodd" d="M37.7181 4.96108V15.1507C37.7181 15.5991 38.326 15.4821 38.786 15.4797L47.1682 15.4794C48.3691 15.4775 48.6671 15.122 47.8983 17.4422C46.1591 22.6915 39.1637 25.6934 33.8055 22.1038C33.5647 21.9425 33.3558 21.7999 33.1414 21.6175C31.1636 19.9349 29.679 17.7067 29.5824 14.9041C29.5293 13.3636 29.5946 12.5747 30.1058 11.0719C30.4912 9.93915 31.1183 8.98647 31.7891 8.1535C32.3727 7.42883 33.4251 6.56378 34.2666 6.11136C34.7942 5.82773 35.225 5.58588 35.8372 5.38107C36.3856 5.19762 37.0238 4.96108 37.7181 4.96108ZM27.0354 13.836C27.0354 15.1724 27.0572 15.8222 27.3965 17.1727C27.7909 18.7424 28.7843 20.8337 29.8909 21.9918C30.7757 22.9179 31.0063 23.2459 32.1788 24.0591C36.5447 27.0881 42.4372 26.857 46.6046 23.462C49.7042 20.937 51.0304 17.5766 51.0304 13.4251C51.0304 13.2031 50.9912 13.1985 50.9482 13.0142C50.6911 12.9928 50.6563 12.932 50.373 12.932H40.2655V2.66018C40.2655 2.14343 39.2633 2.33148 38.2112 2.33148C37.0324 2.33148 34.8325 2.98845 33.7457 3.53612C33.4029 3.70884 33.1474 3.817 32.8361 4.02348C32.2444 4.4161 31.7748 4.68221 31.2062 5.18749C30.9424 5.42195 30.7209 5.672 30.4662 5.92665C29.4221 6.97063 28.8111 7.90027 28.13 9.26056C27.8121 9.89567 27.5871 10.5565 27.396 11.3204C27.2245 12.0051 27.0354 13.0436 27.0354 13.836Z" fill="#F9C92C"/>
<path fill-rule="evenodd" clip-rule="evenodd" d="M99.0203 28.2987V45.2266C99.0203 45.4159 99.0774 45.4731 99.2668 45.4731H104.772C104.962 45.4731 105.019 45.4159 105.019 45.2266V39.8853H112.004C112.193 39.8853 112.25 39.8281 112.25 39.6387V35.6943C112.25 35.505 112.193 35.4478 112.004 35.4478H105.019V32.4895H113.236V28.0521H99.2668C99.0774 28.0521 99.0203 28.1093 99.0203 28.2987Z" fill="#F9C92C"/>
<path fill-rule="evenodd" clip-rule="evenodd" d="M113.976 32.6539H118.824C119.014 32.6539 119.071 32.7111 119.071 32.9004V45.4731H124.905V32.6539H130V28.0521H113.976V32.6539Z" fill="#F9C92C"/>
<path fill-rule="evenodd" clip-rule="evenodd" d="M42.2376 0.441459V10.7133C42.2376 10.9057 42.374 11.042 42.5663 11.042H52.8382C53.0419 11.042 53.1669 10.8156 53.1669 10.7133C53.1669 9.04193 52.7788 7.63197 52.236 6.46711C51.7067 5.33116 50.7272 3.82914 49.7867 3.08211L48.718 2.1787C47.7006 1.40863 46.4471 0.817405 45.1479 0.489543C44.7671 0.393379 42.2376 -0.270556 42.2376 0.441459Z" fill="#F9C92C"/>
</svg>
